<svg version="1.1" id="Layer_1" xmlns="http://www.w3.org/2000/svg" xmlns:xlink="http://www.w3.org/1999/xlink" x="0px" y="0px"
	 width="100%" viewBox="0 0 500 500" enable-background="new 0 0 500 500" xml:space="preserve">
<path fill="#000000" opacity="1.000000" stroke="none" 
	d="
M245.000000,501.000000 
	C163.333359,501.000000 82.166702,501.000000 1.000044,501.000000 
	C1.000029,334.333405 1.000029,167.666779 1.000015,1.000133 
	C167.666565,1.000089 334.333130,1.000089 500.999756,1.000044 
	C500.999847,167.666519 500.999847,334.333038 500.999939,500.999786 
	C415.833344,501.000000 330.666656,501.000000 245.000000,501.000000 
M264.412079,289.208405 
	C264.412079,289.208405 264.423248,289.226349 265.384460,289.413910 
	C266.034515,289.471985 266.684601,289.530060 267.641266,289.898285 
	C268.039948,290.053009 268.438629,290.207733 269.625275,290.692352 
	C269.898499,290.772430 270.171753,290.852509 271.058472,291.209106 
	C274.544617,292.039703 278.030731,292.870300 281.516876,293.700897 
	C281.748199,293.165863 281.979553,292.630798 282.210907,292.095734 
	C279.971802,290.330261 277.732697,288.564819 275.261780,286.652618 
	C275.261780,286.652618 275.115021,286.884430 275.112946,286.190948 
	C272.117554,283.379303 269.122162,280.567657 265.515137,277.329529 
	C262.159485,274.900940 258.717590,272.582001 255.464920,270.022522 
	C246.819244,263.219391 238.275314,256.169037 234.155685,245.575165 
	C233.049362,242.730133 234.022308,239.076553 234.190353,236.524338 
	C234.343536,236.996017 234.496704,237.467697 234.761322,238.431030 
	C235.163589,238.959366 235.565872,239.487701 236.121399,240.707230 
	C243.644760,253.890335 256.185211,261.229248 268.762482,268.445190 
	C269.555481,268.900177 271.433563,267.463867 273.362427,266.527252 
	C279.750641,259.915955 286.138855,253.304688 293.061096,246.265121 
	C298.813538,240.836655 298.454437,236.122742 291.427185,228.307175 
	C290.803284,230.267014 290.242004,232.030151 289.610077,234.015274 
	C281.491180,230.980652 273.553314,228.226395 265.822815,224.978561 
	C263.826538,224.139862 262.481293,221.751587 260.973724,219.418274 
	C261.842896,215.848267 264.115326,217.986084 265.639618,218.475266 
	C271.782684,220.446609 277.852570,222.646179 284.599182,224.990417 
	C285.485565,225.196381 286.371918,225.402344 287.596039,225.730103 
	C287.596039,225.730103 287.956116,225.667480 288.465454,225.772186 
	C292.643829,224.014313 294.377502,220.842819 293.978851,216.377853 
	C293.629150,212.461212 293.259186,208.542755 293.061584,204.616882 
	C292.550354,194.461578 289.328400,185.281357 283.132477,176.481888 
	C279.344757,172.552917 276.235382,167.236221 271.627991,164.984161 
	C262.068817,160.311707 260.933075,152.905075 261.939545,143.957443 
	C261.963959,143.740265 261.740295,143.495193 261.397186,142.757721 
	C260.446747,143.479233 259.626892,144.101578 258.203430,145.043259 
	C255.037552,147.726776 251.772522,150.303772 248.737732,153.128143 
	C246.386124,155.316711 244.322342,157.814514 242.130600,160.174835 
	C245.118896,161.774429 248.107178,163.374008 251.517899,165.454758 
	C252.695969,165.924988 253.874023,166.395218 255.070129,166.943878 
	C255.070129,166.943878 255.148560,166.925827 255.539413,167.452240 
	C266.075806,174.569717 276.009033,182.234726 281.054474,195.236069 
	C279.637634,195.037277 278.863647,194.928680 277.963501,194.126602 
	C276.762787,192.685455 275.562073,191.244324 274.301178,189.358337 
	C274.106415,188.953934 273.911652,188.549530 273.450165,187.716949 
	C273.185486,187.512070 272.920837,187.307190 272.384918,186.519653 
	C268.860718,183.420425 265.336487,180.321213 261.424622,176.699875 
	C259.945923,175.807526 258.467255,174.915161 256.570770,173.497787 
	C251.654388,171.003387 246.738022,168.509003 241.706909,165.822464 
	C241.706909,165.822464 241.293518,165.730103 240.572449,165.433151 
	C239.333267,165.053970 238.094070,164.674774 236.461411,164.035477 
	C235.999878,163.998550 235.538345,163.961609 234.406326,163.654678 
	C233.930176,163.631012 233.454010,163.607330 232.420609,163.607315 
	C231.656982,164.078751 230.893372,164.550186 229.567520,165.204437 
	C229.064545,165.507187 228.561569,165.809937 227.503922,166.197983 
	C227.043701,166.496155 226.583481,166.794327 226.079498,167.095367 
	C226.079498,167.095367 226.079803,167.139221 225.421768,167.344543 
	C208.238327,176.199081 201.661575,196.333664 208.934967,209.787903 
	C210.999741,206.324722 212.923111,203.098740 215.394348,199.473465 
	C222.945038,192.370743 231.793350,189.664505 242.864700,191.768433 
	C243.433990,191.846466 244.003281,191.924515 244.512329,192.055817 
	C244.512329,192.055817 244.604675,192.028793 245.591507,192.599274 
	C245.939377,192.752060 246.287247,192.904846 246.581848,193.014511 
	C246.581848,193.014511 246.525467,193.006882 247.388809,193.379684 
	C247.985428,193.571991 248.582031,193.764297 249.131973,194.564240 
	C249.115189,194.766678 249.098389,194.969131 248.217117,195.139420 
	C245.350052,195.013275 242.483002,194.887146 239.422012,194.728378 
	C239.422012,194.728378 239.141327,194.989319 238.282318,195.031876 
	C236.856323,195.151276 235.430344,195.270676 233.470352,195.414490 
	C233.021942,195.685547 232.573532,195.956619 231.417557,196.383514 
	C230.973419,196.570328 230.529297,196.757141 229.444305,196.988464 
	C222.714523,200.158173 217.753723,204.997330 214.762390,212.611908 
	C214.157211,214.710800 213.552032,216.809692 212.795624,219.812943 
	C212.862747,221.027939 212.929855,222.242935 212.925339,223.476013 
	C212.925339,223.476013 213.021606,223.495331 213.089630,223.720078 
	C213.089630,223.720078 213.231186,223.907410 213.386505,224.646637 
	C214.143387,226.834625 214.900284,229.022614 215.518097,232.021942 
	C215.322250,241.247299 209.127975,246.971939 203.354050,252.965698 
	C202.101089,254.266342 201.077728,255.788147 199.579849,257.671875 
	C207.107925,258.713684 213.605331,259.612854 220.674820,260.918671 
	C226.585373,265.479370 232.306046,270.318085 238.460587,274.521545 
	C244.448792,278.611389 250.881424,282.050507 257.544281,286.083191 
	C258.040131,286.244629 258.536011,286.406097 259.567627,286.997406 
	C260.439728,287.237061 261.311829,287.476685 262.575775,288.076416 
	C263.060730,288.282501 263.545715,288.488556 264.205048,288.975403 
	C264.205048,288.975403 264.444672,289.203094 264.412079,289.208405 
M176.794250,329.296204 
	C178.314651,330.093597 180.237915,331.888672 179.707230,327.432709 
	C179.200775,325.290527 174.933105,324.185699 178.383240,320.878876 
	C181.673737,317.725037 181.586212,313.472168 178.904816,310.799042 
	C176.287598,308.189880 166.928009,307.089935 164.859909,309.234741 
	C164.348160,309.765472 164.017273,310.674561 163.981842,311.427551 
	C163.749207,316.371338 163.488495,321.321747 163.552628,326.265900 
	C163.568176,327.465057 164.765991,328.648895 165.420181,329.839783 
	C166.242081,328.824280 167.477982,327.928497 167.812317,326.772034 
	C169.080856,322.384247 169.681137,322.152863 173.663330,325.354614 
	C173.663330,325.354614 173.953766,325.557983 174.324677,326.141174 
	C175.031860,327.050110 175.739059,327.959045 176.794250,329.296204 
M368.078308,320.249908 
	C367.953674,322.404266 367.615906,324.576355 367.793274,326.705536 
	C367.883423,327.787598 368.901062,328.792328 369.499451,329.832062 
	C370.309692,328.835327 371.634491,327.928101 371.826538,326.823883 
	C372.270599,324.269989 372.166077,321.620697 372.284027,319.010101 
	C372.675293,318.966980 373.066559,318.923859 373.457855,318.880737 
	C375.032379,321.091400 376.606903,323.302063 378.559845,326.043976 
	C380.775635,323.163940 382.519043,320.897919 385.022644,317.643799 
	C385.022644,321.151520 384.755585,323.474213 385.115265,325.695435 
	C385.360229,327.208252 386.481934,328.579132 387.211609,330.013458 
	C388.078400,328.489716 389.641022,326.983612 389.680267,325.438843 
	C389.793427,320.978088 389.427490,316.487396 388.953156,312.040100 
	C388.806976,310.669250 387.707703,309.400055 387.044830,308.084320 
	C385.836945,309.030518 384.362427,309.778381 383.479065,310.965942 
	C381.861450,313.140503 380.592926,315.574768 378.770569,318.572266 
	C376.325958,314.967712 374.567383,312.165680 372.564301,309.550964 
	C371.978577,308.786407 370.555786,308.025757 369.776031,308.234100 
	C369.056488,308.426300 368.307037,309.890381 368.231049,310.846741 
	C368.007507,313.659180 368.111969,316.497711 368.078308,320.249908 
M121.918129,307.428711 
	C120.650810,309.063171 118.647049,310.549408 118.281532,312.365356 
	C117.668999,315.408630 118.075348,318.662201 118.097801,321.826965 
	C118.161560,330.812714 120.609566,332.562988 129.397018,329.876160 
	C130.663284,329.489014 131.917847,328.991669 133.088013,328.374939 
	C137.453918,326.074005 139.041077,322.200531 138.561035,317.544830 
	C138.038513,312.476929 134.443771,308.831268 129.680817,308.136139 
	C127.380142,307.800385 125.054848,307.633362 121.918129,307.428711 
M228.076843,320.169189 
	C228.838257,320.209869 229.947662,319.941681 230.303329,320.342438 
	C232.280930,322.570740 233.955414,325.073425 235.983582,327.249237 
	C236.998413,328.337891 238.544388,328.931519 239.850128,329.749023 
	C240.425842,328.303253 241.468262,326.864319 241.489456,325.410461 
	C241.552109,321.109406 241.332397,316.791626 240.948349,312.505005 
	C240.844971,311.351196 239.762741,310.285065 239.129837,309.178680 
	C238.467651,310.336975 237.448181,311.429565 237.220581,312.667755 
	C236.797546,314.969238 236.836227,317.355652 236.597763,321.007446 
	C233.291428,316.720764 230.965805,313.547577 228.440796,310.541870 
	C227.801041,309.780273 226.232529,308.929840 225.610825,309.222992 
	C224.644928,309.678467 223.555115,311.055786 223.512894,312.083252 
	C223.315582,316.884583 223.362869,321.703766 223.555283,326.507263 
	C223.598343,327.582520 224.577118,328.620300 225.125107,329.675354 
	C225.710678,329.635345 226.296249,329.595367 226.881836,329.555359 
	C227.222626,326.644775 227.563416,323.734161 228.076843,320.169189 
M254.238770,314.971863 
	C252.395630,319.794556 252.937744,324.192657 256.896973,327.731537 
	C260.586548,331.029419 264.860352,331.691254 269.446045,329.750397 
	C272.682434,328.380554 274.667053,322.650116 272.388428,320.126953 
	C271.314728,318.938049 268.880432,318.728424 267.027496,318.605774 
	C266.192993,318.550537 265.272522,319.794006 264.391083,320.448212 
	C265.488892,321.468079 266.603577,322.470917 267.669403,323.523163 
	C267.866913,323.718140 267.867554,324.112457 268.001373,324.554535 
	C265.014771,327.160767 262.034973,326.411530 259.658051,323.930023 
	C257.180542,321.343567 256.839355,317.534058 259.515961,315.428772 
	C261.549805,313.829010 265.125946,314.185547 268.017853,313.682983 
	C269.407104,313.441528 270.800964,313.226288 272.192719,312.999146 
	C271.230560,311.830597 270.503326,310.142334 269.265808,309.583008 
	C263.762360,307.095612 258.342346,308.958710 254.238770,314.971863 
M360.432831,329.707092 
	C363.162354,330.930145 364.542664,330.401825 363.192291,327.264984 
	C362.446564,325.532715 361.159485,324.033447 360.059387,322.341400 
	C363.737274,319.465576 365.568848,316.123322 363.979156,312.067993 
	C362.325409,307.849121 358.302094,308.141052 354.618927,308.154083 
	C353.624756,308.157593 352.628876,308.214142 351.636841,308.173004 
	C348.492859,308.042694 347.090027,309.560394 347.133606,312.668396 
	C347.193970,316.975586 347.035461,321.289795 347.232483,325.588959 
	C347.298981,327.040222 348.162689,328.454987 348.662048,329.886414 
	C349.429138,328.661255 350.196045,327.435974 350.963409,326.210999 
	C351.607635,325.182556 352.235901,323.319550 352.900482,323.306427 
	C354.144745,323.281891 355.638062,324.084747 356.610809,324.990967 
	C357.918640,326.209381 358.831543,327.851746 360.432831,329.707092 
M324.993500,325.330719 
	C329.758362,331.092102 336.279816,332.608582 341.064301,328.834076 
	C342.170135,327.961731 342.622131,326.260590 343.374969,324.940826 
	C341.900269,324.940430 340.228271,324.486450 338.988342,325.025787 
	C335.452972,326.563538 332.111328,327.017303 329.468719,323.786011 
	C326.878265,320.618500 326.926758,316.994568 329.122498,313.575043 
	C331.532349,309.821991 335.051453,310.922302 338.532257,311.549561 
	C340.030273,311.819489 341.652191,311.402039 343.217804,311.296844 
	C342.008209,309.966858 341.046661,308.050842 339.543457,307.414490 
	C334.625092,305.332642 330.055389,306.550507 326.394836,310.327454 
	C322.282074,314.570953 322.451385,319.543945 324.993500,325.330719 
M142.162567,323.536743 
	C142.052216,323.849487 141.869064,324.156433 141.843597,324.475922 
	C141.700623,326.270844 141.595657,328.068756 141.477707,329.865662 
	C142.829483,328.939941 144.384308,328.208679 145.493484,327.050629 
	C148.362152,324.055511 153.138397,324.150970 155.882004,327.317474 
	C156.982727,328.587891 158.399368,329.584625 159.672226,330.705933 
	C160.326706,330.251251 160.981201,329.796600 161.635681,329.341919 
	C158.585388,322.722412 155.581406,316.079651 152.316177,309.567902 
	C152.185104,309.306519 148.799103,309.835999 148.262573,310.765961 
	C146.034470,314.627930 144.318222,318.785248 142.162567,323.536743 
M195.535950,321.072479 
	C192.545746,317.133392 197.181442,316.165161 198.321793,313.821167 
	C199.071182,312.280792 199.562836,310.614990 200.169891,309.005402 
	C198.426086,309.599396 196.269211,309.746460 195.032669,310.889313 
	C193.044952,312.726440 191.665359,315.221588 190.028824,317.438690 
	C189.548645,317.030396 189.068481,316.622101 188.588318,316.213806 
	C188.074585,314.005646 187.560852,311.797516 187.047119,309.589355 
	C186.560120,309.574768 186.073120,309.560181 185.586136,309.545563 
	C185.174927,310.820892 184.468643,312.081970 184.406433,313.374084 
	C184.198532,317.691589 184.078751,322.025818 184.250076,326.340759 
	C184.296204,327.502014 185.495667,328.617462 186.165710,329.753967 
	C186.780289,328.747467 187.426392,327.758606 188.001282,326.729919 
	C188.683456,325.509247 189.304352,324.254333 189.951767,323.014221 
	C191.140930,323.739594 192.443192,324.330902 193.495316,325.218689 
	C195.586823,326.983398 197.540619,328.911377 199.551315,330.771881 
	C200.188873,330.216522 200.826416,329.661163 201.463974,329.105774 
	C199.638077,326.603119 197.812180,324.100433 195.535950,321.072479 
M215.820374,328.585571 
	C217.130219,329.290009 218.440048,329.994446 219.749878,330.698914 
	C220.220657,330.239044 220.691437,329.779205 221.162216,329.319336 
	C219.586502,327.047333 218.252213,324.547394 216.375565,322.559448 
	C213.883759,319.919830 214.173111,317.736237 216.379974,315.212799 
	C217.828262,313.556732 219.010605,311.668121 220.312057,309.883636 
	C219.836853,309.353424 219.361649,308.823212 218.886444,308.292999 
	C215.545410,310.863098 212.204361,313.433197 208.466934,316.308228 
	C208.242142,314.761505 208.272232,313.896332 207.975021,313.164001 
	C207.475479,311.933075 206.767822,310.786621 206.147720,309.604645 
	C205.458984,310.763947 204.236526,311.896332 204.176498,313.087311 
	C203.950607,317.568390 203.986679,322.074158 204.201538,326.557404 
	C204.251404,327.597778 205.394547,328.585785 206.034653,329.597870 
	C206.678818,328.611176 207.427994,327.675568 207.939529,326.624329 
	C208.527512,325.415985 208.905182,324.105286 209.731140,321.875427 
	C212.109695,324.488922 213.744385,326.285065 215.820374,328.585571 
M277.443604,310.095551 
	C277.329803,315.397186 277.108643,320.700348 277.183289,325.999329 
	C277.200348,327.211731 278.236755,328.409729 278.804016,329.614380 
	C279.480255,328.502289 280.743866,327.381927 280.728333,326.279572 
	C280.669373,322.089539 282.900635,321.307587 286.462433,321.500854 
	C290.182251,321.702728 289.871613,324.219116 290.141846,326.748047 
	C290.251251,327.771912 291.307007,328.694641 291.932098,329.663422 
	C292.559113,329.039520 293.713654,328.429321 293.730255,327.789612 
	C293.872162,322.313599 293.871002,316.830597 293.721375,311.354858 
	C293.703735,310.709045 292.532928,310.094788 291.896667,309.465881 
	C291.317902,310.152374 290.549011,310.758881 290.216553,311.549011 
	C289.914581,312.266663 289.994232,313.192383 290.067169,314.012024 
	C290.379974,317.528809 288.346008,318.064209 285.431702,318.087708 
	C282.398010,318.112122 280.761505,317.279724 280.842621,313.887085 
	C280.887085,312.025146 281.752319,309.059052 277.443604,310.095551 
M303.525208,328.831146 
	C306.693024,330.676392 306.829071,328.401215 306.864227,326.278625 
	C306.934692,322.022400 306.885162,317.764191 306.885162,313.541504 
	C308.769043,313.229370 309.829620,313.257812 310.688110,312.855255 
	C311.586029,312.434235 312.289673,311.598785 313.078217,310.944489 
	C312.290497,310.246094 311.536652,308.994751 310.709259,308.944031 
	C306.911072,308.711334 303.086945,308.700562 299.284760,308.878967 
	C298.366882,308.921997 297.497040,309.988983 296.605133,310.585114 
	C297.459595,311.360138 298.316101,312.797882 299.168121,312.795258 
	C302.810577,312.784058 303.049377,314.960693 303.023499,317.717072 
	C302.990784,321.198639 303.174408,324.682220 303.525208,328.831146 
M245.636597,311.544891 
	C245.635391,316.702484 245.526672,321.864380 245.731720,327.013763 
	C245.768799,327.945099 247.093628,328.825165 247.823959,329.728882 
	C248.457932,328.870331 249.607101,328.031403 249.640640,327.150024 
	C249.830368,322.164215 249.953064,317.157135 249.677887,312.180573 
	C249.548737,309.845215 248.270859,308.150024 245.636597,311.544891 
z"/>
<path fill="#1E3764" opacity="1.000000" stroke="none" 
	d="
M212.996964,223.457932 
	C212.929855,222.242935 212.862747,221.027939 213.031052,219.140854 
	C213.906616,216.344437 214.546768,214.220123 215.186920,212.095810 
	C217.753723,204.997330 222.714523,200.158173 229.919983,197.200256 
	C237.006348,202.538925 241.925140,208.466614 244.918732,216.780746 
	C246.998245,222.556183 252.831848,226.979950 257.231934,232.144119 
	C257.976868,232.525528 258.478149,232.770386 259.030884,233.342468 
	C258.526611,236.749100 257.970825,239.828506 257.352020,243.256973 
	C259.682922,242.325775 261.337433,241.664810 263.111633,241.230743 
	C264.468994,241.308289 265.706726,241.158905 267.333923,240.996216 
	C268.502716,240.977066 269.282013,240.971237 270.032959,241.369980 
	C269.399658,244.269531 268.463745,246.744720 268.312897,249.266830 
	C268.221222,250.799576 269.341919,252.404846 270.046600,254.271118 
	C273.028107,257.881012 273.333038,253.212173 275.219910,253.218781 
	C274.591278,255.350021 274.251587,257.690369 272.923157,259.096619 
	C270.281250,261.893219 269.655670,264.245636 272.806854,266.907440 
	C271.433563,267.463867 269.555481,268.900177 268.762482,268.445190 
	C256.185211,261.229248 243.644760,253.890335 236.053299,240.169662 
	C235.540085,239.067856 235.094986,238.503616 234.649872,237.939377 
	C234.496704,237.467697 234.343536,236.996017 233.952759,235.869415 
	C232.098587,234.145126 230.492645,233.059265 228.863052,232.010101 
	C226.238327,230.320267 223.093811,229.103729 221.096298,226.861176 
	C218.779053,224.259644 216.377472,223.499603 213.231186,223.907410 
	C213.231186,223.907410 213.089630,223.720078 213.046036,223.603485 
	C213.002441,223.486908 212.996964,223.457932 212.996964,223.457932 
z"/>
<path fill="#203D6D" opacity="1.000000" stroke="none" 
	d="
M270.061310,240.965408 
	C269.282013,240.971237 268.502716,240.977066 266.940430,240.994812 
	C265.102264,241.005753 264.047119,241.004791 262.991974,241.003830 
	C261.337433,241.664810 259.682922,242.325775 257.352020,243.256973 
	C257.970825,239.828506 258.526611,236.749100 259.343781,233.480713 
	C261.793549,234.715363 263.865631,236.414078 266.232697,237.415283 
	C267.075195,237.771637 268.633759,236.434967 269.865448,235.871094 
	C269.115021,234.931396 268.484650,233.330627 267.593018,233.168732 
	C264.102875,232.534988 260.530243,232.355728 256.988251,232.007584 
	C252.831848,226.979950 246.998245,222.556183 244.918732,216.780746 
	C241.925140,208.466614 237.006348,202.538925 230.240417,197.177994 
	C230.529297,196.757141 230.973419,196.570328 231.951447,196.312439 
	C232.991684,195.957611 233.498016,195.673859 234.004349,195.390091 
	C235.430344,195.270676 236.856323,195.151276 238.796204,194.983826 
	C239.310074,194.935791 239.615936,194.761002 239.615936,194.761002 
	C242.483002,194.887146 245.350052,195.013275 248.818619,195.314545 
	C250.072235,195.635925 250.724365,195.782166 251.376480,195.928406 
	C251.428619,195.689117 251.480759,195.449829 251.532898,195.210541 
	C250.748154,194.792557 249.963394,194.374588 249.178650,193.956604 
	C248.582031,193.764297 247.985428,193.571991 246.967560,193.215012 
	C246.546310,193.050339 246.635132,193.057632 246.635132,193.057648 
	C246.287247,192.904846 245.939377,192.752060 245.091949,192.318970 
	C244.592392,192.038666 244.572571,192.002548 244.572571,192.002548 
	C244.003281,191.924515 243.433990,191.846466 242.309708,191.389893 
	C238.990448,188.921616 236.226166,186.831909 233.197205,184.542114 
	C237.263489,181.754440 235.805893,178.801651 233.639587,175.638336 
	C232.559998,174.061874 232.156845,172.035629 231.172318,170.376221 
	C230.425446,169.117355 229.243149,168.116821 228.210098,166.778198 
	C228.165604,166.555038 228.058594,166.112701 228.058594,166.112701 
	C228.561569,165.809937 229.064545,165.507187 230.113281,165.048859 
	C231.431976,164.456741 232.204926,164.020187 232.977859,163.583649 
	C233.454010,163.607330 233.930176,163.631012 234.868469,163.874451 
	C235.838715,164.161346 236.346802,164.228470 236.854889,164.295578 
	C238.094070,164.674774 239.333267,165.053970 241.015747,165.636230 
	C241.459030,165.839325 241.821640,166.014603 241.821640,166.014603 
	C246.738022,168.509003 251.654388,171.003387 256.738281,173.819214 
	C256.905792,174.140640 256.823395,174.258743 256.493469,174.282639 
	C255.034897,175.818497 252.767242,177.540695 252.999924,178.801407 
	C253.600418,182.054947 255.393555,185.072800 256.542938,188.245422 
	C257.503204,190.896011 259.334717,193.852417 258.850769,196.290329 
	C257.290161,204.151825 259.231964,211.179626 265.905060,215.599533 
	C269.297424,217.846420 273.274628,219.210220 277.316956,221.079422 
	C279.747437,222.377563 281.848450,223.569519 283.949463,224.761475 
	C277.852570,222.646179 271.782684,220.446609 265.639618,218.475266 
	C264.115326,217.986084 261.842896,215.848267 260.796570,220.079071 
	C259.042725,225.672394 262.855194,226.652390 266.142578,228.249756 
	C266.812531,228.626419 267.361816,228.859314 268.221710,229.223450 
	C270.361664,230.225037 272.190979,231.095383 274.143890,232.124176 
	C274.857086,232.506897 275.446655,232.731140 276.314270,233.069458 
	C277.414062,233.737534 278.235840,234.291550 278.798218,235.078690 
	C275.713013,237.196335 272.887177,239.080872 270.061310,240.965408 
z"/>
<path fill="#1B305B" opacity="1.000000" stroke="none" 
	d="
M213.308838,224.277023 
	C216.377472,223.499603 218.779053,224.259644 221.096298,226.861176 
	C223.093811,229.103729 226.238327,230.320267 228.863052,232.010101 
	C230.492645,233.059265 232.098587,234.145126 233.877960,235.504318 
	C234.022308,239.076553 233.049362,242.730133 234.155685,245.575165 
	C238.275314,256.169037 246.819244,263.219391 255.464920,270.022522 
	C258.717590,272.582001 262.159485,274.900940 265.901245,277.829102 
	C269.229889,281.180603 272.172455,284.032532 275.115021,286.884430 
	C275.115021,286.884430 275.261780,286.652618 275.168213,287.028748 
	C273.531403,288.580780 271.988190,289.756683 270.444977,290.932587 
	C270.171753,290.852509 269.898499,290.772430 269.115814,290.449829 
	C268.182465,290.000946 267.758545,289.794525 267.334656,289.588135 
	C266.684601,289.530060 266.034515,289.471985 264.904358,289.328369 
	C264.424255,289.242828 264.444672,289.203094 264.444672,289.203094 
	C264.444672,289.203094 264.205048,288.975403 263.981323,288.721100 
	C263.233063,288.216644 262.708496,287.966492 262.183929,287.716339 
	C261.311829,287.476685 260.439728,287.237061 259.153870,286.683685 
	C258.199677,286.171783 257.659302,285.973602 257.118896,285.775391 
	C250.881424,282.050507 244.448792,278.611389 238.460587,274.521545 
	C232.306046,270.318085 226.585373,265.479370 220.258026,260.425415 
	C219.390732,259.236359 219.077332,258.374756 218.468033,257.871002 
	C213.661316,253.896637 213.287750,249.609070 215.628906,243.745956 
	C217.069214,240.138870 215.741837,235.426636 215.657166,231.210617 
	C214.900284,229.022614 214.143387,226.834625 213.308838,224.277023 
z"/>
<path fill="#26487C" opacity="1.000000" stroke="none" 
	d="
M284.274323,224.875946 
	C281.848450,223.569519 279.747437,222.377563 277.207031,220.742981 
	C276.316589,216.840057 275.909485,213.373245 275.397247,209.922043 
	C275.112793,208.005524 274.731659,206.095139 274.257202,204.216568 
	C272.829010,198.561996 269.152069,193.336548 271.302063,187.076477 
	C271.933899,187.096268 272.295013,187.099289 272.656158,187.102295 
	C272.920837,187.307190 273.185486,187.512070 273.589325,188.094635 
	C273.939423,188.915939 274.150391,189.359573 274.361328,189.803192 
	C275.562073,191.244324 276.762787,192.685455 278.084412,194.832809 
	C278.710571,197.729370 279.374451,200.368195 282.203766,198.864136 
	C283.108459,198.383209 283.265015,194.941422 282.589172,193.354675 
	C281.042114,189.722397 278.770660,186.398651 276.859772,182.610687 
	C277.828705,180.498688 278.731201,178.725571 279.899658,176.978790 
	C280.340576,177.022049 280.515564,177.038986 280.823975,177.395233 
	C282.478851,180.850098 284.541534,183.820145 285.425446,187.107132 
	C288.743988,199.447968 296.200745,211.591385 287.891724,224.884674 
	C287.571014,225.202347 287.405029,225.397125 287.258301,225.608307 
	C286.371918,225.402344 285.485565,225.196381 284.274323,224.875946 
z"/>
<path fill="#1E3764" opacity="1.000000" stroke="none" 
	d="
M228.254593,167.001343 
	C229.243149,168.116821 230.425446,169.117355 231.172318,170.376221 
	C232.156845,172.035629 232.559998,174.061874 233.639587,175.638336 
	C235.805893,178.801651 237.263489,181.754440 233.197205,184.542114 
	C236.226166,186.831909 238.990448,188.921616 241.885544,191.313644 
	C231.793350,189.664505 222.945038,192.370743 214.895203,199.431488 
	C214.068436,197.999725 213.274292,196.532867 213.489090,195.232712 
	C214.848419,187.004715 217.450989,179.255249 222.763031,172.600616 
	C224.080933,170.949615 224.985336,168.968567 226.079803,167.139221 
	C226.079803,167.139221 226.079498,167.095367 226.455124,167.086121 
	C227.305359,167.051697 227.779984,167.026520 228.254593,167.001343 
z"/>
<path fill="#203D6D" opacity="1.000000" stroke="none" 
	d="
M279.633728,176.952469 
	C278.731201,178.725571 277.828705,180.498688 276.637787,182.392090 
	C269.864136,176.525650 264.292664,169.295990 255.148560,166.925827 
	C255.148560,166.925827 255.070129,166.943878 254.830811,166.685623 
	C253.426163,165.942780 252.260818,165.458191 251.095474,164.973602 
	C248.107178,163.374008 245.118896,161.774429 242.130615,160.174835 
	C244.322342,157.814514 246.386124,155.316711 248.737732,153.128143 
	C251.772522,150.303772 255.037552,147.726776 258.617004,145.299927 
	C259.301544,148.178085 260.002625,150.842957 259.743805,153.411041 
	C259.343048,157.386703 260.928223,159.469818 264.044037,161.941071 
	C269.670074,166.403336 274.481873,171.892288 279.633728,176.952469 
z"/>
<path fill="#223E70" opacity="1.000000" stroke="none" 
	d="
M270.032959,241.369980 
	C272.887177,239.080872 275.713013,237.196335 279.170227,235.153488 
	C282.980621,236.285095 286.162201,237.568893 289.338104,238.866547 
	C293.060089,240.387299 294.257843,242.946182 292.527069,246.693405 
	C286.138855,253.304688 279.750641,259.915955 273.084656,266.717346 
	C269.655670,264.245636 270.281250,261.893219 272.923157,259.096619 
	C274.251587,257.690369 274.591278,255.350021 275.274475,252.867874 
	C276.378296,249.501205 277.585754,246.698746 278.793213,243.896286 
	C278.197754,243.636551 277.602295,243.376801 277.006836,243.117050 
	C274.643890,246.737213 272.280914,250.357376 269.917969,253.977539 
	C269.341919,252.404846 268.221222,250.799576 268.312897,249.266830 
	C268.463745,246.744720 269.399658,244.269531 270.032959,241.369980 
z"/>
<path fill="#2B4568" opacity="1.000000" stroke="none" 
	d="
M368.083191,319.787964 
	C368.111969,316.497711 368.007507,313.659180 368.231049,310.846741 
	C368.307037,309.890381 369.056488,308.426300 369.776031,308.234100 
	C370.555786,308.025757 371.978577,308.786407 372.564301,309.550964 
	C374.567383,312.165680 376.325958,314.967712 378.770569,318.572266 
	C380.592926,315.574768 381.861450,313.140503 383.479065,310.965942 
	C384.362427,309.778381 385.836945,309.030518 387.044800,308.084320 
	C387.707703,309.400055 388.806976,310.669250 388.953156,312.040100 
	C389.427490,316.487396 389.793427,320.978088 389.680267,325.438843 
	C389.641022,326.983612 388.078400,328.489716 387.211609,330.013458 
	C386.481934,328.579132 385.360229,327.208252 385.115265,325.695435 
	C384.755585,323.474213 385.022644,321.151520 385.022644,317.643799 
	C382.519043,320.897919 380.775635,323.163940 378.559845,326.043976 
	C376.606903,323.302063 375.032379,321.091400 373.457855,318.880737 
	C373.066559,318.923859 372.675293,318.966980 372.284027,319.010101 
	C372.166077,321.620697 372.270599,324.269989 371.826538,326.823883 
	C371.634491,327.928101 370.309692,328.835327 369.499451,329.832031 
	C368.901062,328.792328 367.883423,327.787598 367.793274,326.705536 
	C367.615906,324.576355 367.953674,322.404266 368.083191,319.787964 
z"/>
<path fill="#1C2D4A" opacity="1.000000" stroke="none" 
	d="
M122.329414,307.409332 
	C125.054848,307.633362 127.380142,307.800385 129.680817,308.136139 
	C134.443771,308.831268 138.038513,312.476929 138.561035,317.544830 
	C139.041077,322.200531 137.453918,326.074005 133.088013,328.374939 
	C131.917847,328.991669 130.663284,329.489014 129.397018,329.876160 
	C120.609566,332.562988 118.161560,330.812714 118.097801,321.826965 
	C118.075348,318.662201 117.668999,315.408630 118.281532,312.365356 
	C118.647049,310.549408 120.650810,309.063171 122.329414,307.409332 
M122.691658,319.044342 
	C123.246017,321.186127 123.503502,324.987671 124.411888,325.150146 
	C126.873405,325.590424 130.628799,325.347717 131.968613,323.765198 
	C133.469482,321.992371 134.060333,317.693604 132.893066,315.881622 
	C131.566940,313.822998 127.856445,313.300323 125.182457,312.109955 
	C124.339203,314.148926 123.495949,316.187897 122.691658,319.044342 
z"/>
<path fill="#142445" opacity="1.000000" stroke="none" 
	d="
M225.750793,167.241882 
	C224.985336,168.968567 224.080933,170.949615 222.763031,172.600616 
	C217.450989,179.255249 214.848419,187.004715 213.489090,195.232712 
	C213.274292,196.532867 214.068436,197.999725 214.621277,199.631119 
	C212.923111,203.098740 210.999741,206.324722 208.934967,209.787903 
	C201.661575,196.333664 208.238327,176.199081 225.750793,167.241882 
z"/>
<path fill="#1E2F53" opacity="1.000000" stroke="none" 
	d="
M227.990540,320.496399 
	C227.563416,323.734161 227.222626,326.644775 226.881836,329.555359 
	C226.296249,329.595367 225.710678,329.635345 225.125107,329.675354 
	C224.577118,328.620300 223.598343,327.582520 223.555283,326.507263 
	C223.362869,321.703766 223.315582,316.884583 223.512894,312.083252 
	C223.555115,311.055786 224.644928,309.678467 225.610825,309.222992 
	C226.232529,308.929840 227.801041,309.780273 228.440796,310.541870 
	C230.965805,313.547577 233.291428,316.720764 236.597763,321.007446 
	C236.836227,317.355652 236.797546,314.969238 237.220581,312.667755 
	C237.448181,311.429565 238.467651,310.336975 239.129852,309.178680 
	C239.762741,310.285065 240.844971,311.351196 240.948349,312.505005 
	C241.332397,316.791626 241.552109,321.109406 241.489456,325.410461 
	C241.468262,326.864319 240.425842,328.303253 239.850128,329.749023 
	C238.544388,328.931519 236.998413,328.337891 235.983582,327.249237 
	C233.955414,325.073425 232.280930,322.570740 230.303329,320.342438 
	C229.947662,319.941681 228.838257,320.209869 227.990540,320.496399 
z"/>
<path fill="#1E2F53" opacity="1.000000" stroke="none" 
	d="
M254.409363,314.628326 
	C258.342346,308.958710 263.762360,307.095612 269.265808,309.583008 
	C270.503326,310.142334 271.230560,311.830597 272.192719,312.999146 
	C270.800964,313.226288 269.407104,313.441528 268.017853,313.682983 
	C265.125946,314.185547 261.549805,313.829010 259.515961,315.428772 
	C256.839355,317.534058 257.180542,321.343567 259.658051,323.930023 
	C262.034973,326.411530 265.014771,327.160767 268.001373,324.554535 
	C267.867554,324.112457 267.866913,323.718140 267.669403,323.523163 
	C266.603577,322.470917 265.488892,321.468079 264.391083,320.448212 
	C265.272522,319.794006 266.192993,318.550537 267.027496,318.605774 
	C268.880432,318.728424 271.314728,318.938049 272.388428,320.126953 
	C274.667053,322.650116 272.682434,328.380554 269.446045,329.750397 
	C264.860352,331.691254 260.586548,331.029419 256.896973,327.731537 
	C252.937744,324.192657 252.395630,319.794556 254.409363,314.628326 
z"/>
<path fill="#1E2F53" opacity="1.000000" stroke="none" 
	d="
M173.609619,325.181030 
	C169.681137,322.152863 169.080856,322.384247 167.812317,326.772034 
	C167.477982,327.928497 166.242081,328.824280 165.420181,329.839783 
	C164.765991,328.648895 163.568176,327.465057 163.552628,326.265900 
	C163.488495,321.321747 163.749207,316.371338 163.981842,311.427551 
	C164.017273,310.674561 164.348160,309.765472 164.859909,309.234741 
	C166.928009,307.089935 176.287598,308.189880 178.904816,310.799042 
	C181.586212,313.472168 181.673737,317.725037 178.383240,320.878876 
	C174.933105,324.185699 179.200775,325.290527 179.516022,327.838196 
	C178.365295,328.451782 177.405762,328.659882 176.446243,328.867981 
	C175.739059,327.959045 175.031860,327.050110 174.092316,325.779541 
	C173.859940,325.417877 173.609619,325.181030 173.609619,325.181030 
M174.742523,317.690735 
	C174.676804,316.311676 174.959839,313.903961 174.481552,313.741821 
	C172.891922,313.202850 170.984940,313.244934 169.297485,313.570892 
	C168.806168,313.665741 168.137741,316.145111 168.415466,316.348083 
	C169.612427,317.222992 171.111710,317.712280 172.544464,318.218842 
	C172.949219,318.361938 173.501740,318.087158 174.742523,317.690735 
z"/>
<path fill="#2B4568" opacity="1.000000" stroke="none" 
	d="
M360.173401,329.509613 
	C358.831543,327.851746 357.918640,326.209381 356.610809,324.990967 
	C355.638062,324.084747 354.144745,323.281891 352.900482,323.306427 
	C352.235901,323.319550 351.607635,325.182556 350.963409,326.210999 
	C350.196045,327.435974 349.429138,328.661255 348.662048,329.886414 
	C348.162689,328.454987 347.298981,327.040222 347.232483,325.588959 
	C347.035461,321.289795 347.193970,316.975586 347.133606,312.668396 
	C347.090027,309.560394 348.492859,308.042694 351.636841,308.173004 
	C352.628876,308.214142 353.624756,308.157593 354.618927,308.154083 
	C358.302094,308.141052 362.325409,307.849121 363.979156,312.067993 
	C365.568848,316.123322 363.737274,319.465576 360.059387,322.341400 
	C361.159485,324.033447 362.446564,325.532715 363.192291,327.264984 
	C364.542664,330.401825 363.162354,330.930145 360.173401,329.509613 
M358.955231,317.741119 
	C359.137909,316.224670 359.770691,313.516327 359.429382,313.387451 
	C357.388977,312.616913 355.045013,311.961121 352.973694,312.302765 
	C352.151428,312.438354 351.766907,315.227997 351.183075,316.809326 
	C352.741730,317.373047 354.270844,318.059418 355.872345,318.445496 
	C356.602417,318.621490 357.475464,318.204407 358.955231,317.741119 
z"/>
<path fill="#273E62" opacity="1.000000" stroke="none" 
	d="
M324.806641,324.999329 
	C322.451385,319.543945 322.282074,314.570953 326.394836,310.327454 
	C330.055389,306.550507 334.625092,305.332642 339.543457,307.414490 
	C341.046661,308.050842 342.008209,309.966858 343.217804,311.296875 
	C341.652191,311.402039 340.030273,311.819489 338.532257,311.549561 
	C335.051453,310.922302 331.532349,309.821991 329.122498,313.575043 
	C326.926758,316.994568 326.878265,320.618500 329.468719,323.786011 
	C332.111328,327.017303 335.452972,326.563538 338.988342,325.025787 
	C340.228271,324.486450 341.900269,324.940430 343.374969,324.940826 
	C342.622131,326.260590 342.170135,327.961731 341.064301,328.834076 
	C336.279816,332.608582 329.758362,331.092102 324.806641,324.999329 
z"/>
<path fill="#1C2D4A" opacity="1.000000" stroke="none" 
	d="
M142.288330,323.185425 
	C144.318222,318.785248 146.034470,314.627930 148.262573,310.765961 
	C148.799103,309.835999 152.185104,309.306519 152.316177,309.567902 
	C155.581406,316.079651 158.585388,322.722412 161.635681,329.341919 
	C160.981201,329.796600 160.326706,330.251251 159.672226,330.705933 
	C158.399368,329.584625 156.982727,328.587891 155.882004,327.317474 
	C153.138397,324.150970 148.362152,324.055511 145.493484,327.050629 
	C144.384308,328.208679 142.829483,328.939941 141.477707,329.865662 
	C141.595657,328.068756 141.700623,326.270844 141.843597,324.475922 
	C141.869064,324.156433 142.052216,323.849487 142.288330,323.185425 
z"/>
<path fill="#1C2D4A" opacity="1.000000" stroke="none" 
	d="
M195.761108,321.335114 
	C197.812180,324.100433 199.638077,326.603119 201.463974,329.105774 
	C200.826416,329.661163 200.188873,330.216522 199.551315,330.771881 
	C197.540619,328.911377 195.586823,326.983398 193.495316,325.218689 
	C192.443192,324.330902 191.140930,323.739594 189.951782,323.014221 
	C189.304352,324.254333 188.683456,325.509247 188.001282,326.729919 
	C187.426392,327.758606 186.780289,328.747467 186.165710,329.753967 
	C185.495667,328.617462 184.296204,327.502014 184.250076,326.340759 
	C184.078751,322.025818 184.198532,317.691589 184.406433,313.374084 
	C184.468643,312.081970 185.174927,310.820892 185.586136,309.545563 
	C186.073120,309.560181 186.560120,309.574768 187.047119,309.589355 
	C187.560852,311.797516 188.074585,314.005646 188.588318,316.213806 
	C189.068481,316.622101 189.548645,317.030396 190.028824,317.438690 
	C191.665359,315.221588 193.044952,312.726440 195.032669,310.889313 
	C196.269211,309.746460 198.426086,309.599396 200.169891,309.005371 
	C199.562836,310.614990 199.071182,312.280792 198.321793,313.821167 
	C197.181442,316.165161 192.545746,317.133392 195.761108,321.335114 
z"/>
<path fill="#1E2F53" opacity="1.000000" stroke="none" 
	d="
M215.599716,328.333374 
	C213.744385,326.285065 212.109695,324.488922 209.731140,321.875427 
	C208.905182,324.105286 208.527512,325.415985 207.939529,326.624329 
	C207.427994,327.675568 206.678818,328.611176 206.034637,329.597870 
	C205.394547,328.585785 204.251404,327.597778 204.201538,326.557404 
	C203.986679,322.074158 203.950607,317.568390 204.176498,313.087311 
	C204.236526,311.896332 205.458984,310.763947 206.147720,309.604645 
	C206.767822,310.786621 207.475479,311.933075 207.975021,313.164001 
	C208.272232,313.896332 208.242142,314.761505 208.466934,316.308228 
	C212.204361,313.433197 215.545410,310.863098 218.886444,308.292999 
	C219.361649,308.823212 219.836853,309.353424 220.312057,309.883636 
	C219.010605,311.668121 217.828262,313.556732 216.379974,315.212799 
	C214.173111,317.736237 213.883759,319.919830 216.375565,322.559448 
	C218.252213,324.547394 219.586502,327.047333 221.162216,329.319336 
	C220.691437,329.779205 220.220657,330.239044 219.749878,330.698914 
	C218.440048,329.994446 217.130219,329.290009 215.599716,328.333374 
z"/>
<path fill="#315186" opacity="1.000000" stroke="none" 
	d="
M292.794067,246.479263 
	C294.257843,242.946182 293.060089,240.387299 289.338104,238.866547 
	C286.162201,237.568893 282.980621,236.285095 279.429565,234.920364 
	C278.235840,234.291550 277.414062,233.737534 276.069183,232.931152 
	C275.037476,232.441101 274.528870,232.203415 274.020294,231.965729 
	C272.190979,231.095383 270.361664,230.225037 267.999756,229.075607 
	C266.985382,228.566345 266.503662,228.336151 266.021912,228.105957 
	C262.855194,226.652390 259.042725,225.672394 260.728210,220.407501 
	C262.481293,221.751587 263.826538,224.139862 265.822815,224.978561 
	C273.553314,228.226395 281.491180,230.980652 289.610077,234.015274 
	C290.242004,232.030151 290.803284,230.267014 291.427185,228.307175 
	C298.454437,236.122742 298.813538,240.836655 292.794067,246.479263 
z"/>
<path fill="#273E62" opacity="1.000000" stroke="none" 
	d="
M277.683716,309.857361 
	C281.752319,309.059052 280.887085,312.025146 280.842621,313.887085 
	C280.761505,317.279724 282.398010,318.112122 285.431702,318.087708 
	C288.346008,318.064209 290.379974,317.528809 290.067169,314.012024 
	C289.994232,313.192383 289.914581,312.266663 290.216553,311.549011 
	C290.549011,310.758881 291.317902,310.152374 291.896667,309.465881 
	C292.532928,310.094788 293.703735,310.709045 293.721375,311.354858 
	C293.871002,316.830597 293.872162,322.313599 293.730255,327.789612 
	C293.713654,328.429321 292.559113,329.039520 291.932098,329.663422 
	C291.307007,328.694641 290.251251,327.771912 290.141846,326.748047 
	C289.871613,324.219116 290.182251,321.702728 286.462433,321.500854 
	C282.900635,321.307587 280.669373,322.089539 280.728333,326.279572 
	C280.743866,327.381927 279.480255,328.502289 278.804016,329.614380 
	C278.236755,328.409729 277.200348,327.211731 277.183289,325.999329 
	C277.108643,320.700348 277.329803,315.397186 277.683716,309.857361 
z"/>
<path fill="#142445" opacity="1.000000" stroke="none" 
	d="
M215.587616,231.616272 
	C215.741837,235.426636 217.069214,240.138870 215.628906,243.745956 
	C213.287750,249.609070 213.661316,253.896637 218.468033,257.871002 
	C219.077332,258.374756 219.390732,259.236359 219.971985,260.222107 
	C213.605331,259.612854 207.107925,258.713684 199.579849,257.671875 
	C201.077728,255.788147 202.101089,254.266342 203.354050,252.965698 
	C209.127975,246.971939 215.322250,241.247299 215.587616,231.616272 
z"/>
<path fill="#385C8E" opacity="1.000000" stroke="none" 
	d="
M288.027252,224.745377 
	C296.200745,211.591385 288.743988,199.447968 285.425446,187.107132 
	C284.541534,183.820145 282.478851,180.850098 281.167053,177.383545 
	C282.050262,177.034317 282.723846,177.036072 283.397400,177.037811 
	C289.328400,185.281357 292.550354,194.461578 293.061584,204.616882 
	C293.259186,208.542755 293.629150,212.461212 293.978851,216.377853 
	C294.377502,220.842819 292.643829,224.014313 288.250427,225.490997 
	C288.035400,225.209808 288.027252,224.745377 288.027252,224.745377 
z"/>
<path fill="#273E62" opacity="1.000000" stroke="none" 
	d="
M303.394958,328.498047 
	C303.174408,324.682220 302.990784,321.198639 303.023499,317.717072 
	C303.049377,314.960693 302.810577,312.784058 299.168121,312.795258 
	C298.316101,312.797882 297.459595,311.360138 296.605133,310.585114 
	C297.497040,309.988983 298.366882,308.921997 299.284760,308.878967 
	C303.086945,308.700562 306.911072,308.711334 310.709259,308.944031 
	C311.536652,308.994751 312.290497,310.246094 313.078217,310.944489 
	C312.289673,311.598785 311.586029,312.434235 310.688110,312.855255 
	C309.829620,313.257812 308.769043,313.229370 306.885162,313.541504 
	C306.885162,317.764191 306.934692,322.022400 306.864227,326.278625 
	C306.829071,328.401215 306.693024,330.676392 303.394958,328.498047 
z"/>
<path fill="#273E62" opacity="1.000000" stroke="none" 
	d="
M255.343994,167.189026 
	C264.292664,169.295990 269.864136,176.525650 276.571381,182.730988 
	C278.770660,186.398651 281.042114,189.722397 282.589172,193.354675 
	C283.265015,194.941422 283.108459,198.383209 282.203766,198.864136 
	C279.374451,200.368195 278.710571,197.729370 278.147461,195.179535 
	C278.863647,194.928680 279.637634,195.037277 281.054474,195.236069 
	C276.009033,182.234726 266.075806,174.569717 255.343994,167.189026 
z"/>
<path fill="#315186" opacity="1.000000" stroke="none" 
	d="
M283.264954,176.759857 
	C282.723846,177.036072 282.050262,177.034317 281.033630,177.044250 
	C280.515564,177.038986 280.340576,177.022049 279.899658,176.978790 
	C274.481873,171.892288 269.670074,166.403336 264.044037,161.941071 
	C260.928223,159.469818 259.343048,157.386703 259.743805,153.411041 
	C260.002625,150.842957 259.301544,148.178085 258.918823,145.140259 
	C259.626892,144.101578 260.446747,143.479233 261.397186,142.757721 
	C261.740295,143.495193 261.963959,143.740265 261.939545,143.957443 
	C260.933075,152.905075 262.068817,160.311707 271.627991,164.984161 
	C276.235382,167.236221 279.344757,172.552917 283.264954,176.759857 
z"/>
<path fill="#1E2F53" opacity="1.000000" stroke="none" 
	d="
M245.758942,311.177917 
	C248.270859,308.150024 249.548737,309.845215 249.677887,312.180573 
	C249.953064,317.157135 249.830368,322.164215 249.640640,327.150024 
	C249.607101,328.031403 248.457932,328.870331 247.823959,329.728882 
	C247.093628,328.825165 245.768799,327.945099 245.731720,327.013763 
	C245.526672,321.864380 245.635391,316.702484 245.758942,311.177917 
z"/>
<path fill="#273E62" opacity="1.000000" stroke="none" 
	d="
M270.751709,291.070862 
	C271.988190,289.756683 273.531403,288.580780 275.284119,287.102112 
	C277.732697,288.564819 279.971802,290.330261 282.210907,292.095734 
	C281.979553,292.630798 281.748199,293.165863 281.516876,293.700897 
	C278.030731,292.870300 274.544617,292.039703 270.751709,291.070862 
z"/>
<path fill="#203D6D" opacity="1.000000" stroke="none" 
	d="
M272.520538,186.810974 
	C272.295013,187.099289 271.933899,187.096268 271.037109,186.864990 
	C267.561188,183.541000 264.620941,180.445267 261.713654,177.317688 
	C261.746613,177.285858 261.812286,177.221985 261.812286,177.221985 
	C265.336487,180.321213 268.860718,183.420425 272.520538,186.810974 
z"/>
<path fill="#273E62" opacity="1.000000" stroke="none" 
	d="
M275.113983,286.537689 
	C272.172455,284.032532 269.229889,281.180603 266.207031,278.042358 
	C269.122162,280.567657 272.117554,283.379303 275.113983,286.537689 
z"/>
<path fill="#1B305B" opacity="1.000000" stroke="none" 
	d="
M214.974640,212.353851 
	C214.546768,214.220123 213.906616,216.344437 213.106659,218.688660 
	C213.552032,216.809692 214.157211,214.710800 214.974640,212.353851 
z"/>
<path fill="#142445" opacity="1.000000" stroke="none" 
	d="
M176.620239,329.082092 
	C177.405762,328.659882 178.365295,328.451782 179.605133,328.145813 
	C180.237915,331.888672 178.314651,330.093597 176.620239,329.082092 
z"/>
<path fill="#203D6D" opacity="1.000000" stroke="none" 
	d="
M256.947174,174.081726 
	C258.467255,174.915161 259.945923,175.807526 261.618469,176.960938 
	C261.812286,177.221985 261.746613,177.285858 261.395203,177.219086 
	C259.636993,176.187775 258.230194,175.223251 256.823395,174.258743 
	C256.823395,174.258743 256.905792,174.140640 256.947174,174.081726 
z"/>
<path fill="#1E3764" opacity="1.000000" stroke="none" 
	d="
M249.155304,194.260422 
	C249.963394,194.374588 250.748154,194.792557 251.532898,195.210541 
	C251.480759,195.449829 251.428619,195.689117 251.376480,195.928406 
	C250.724365,195.782166 250.072235,195.635925 249.250854,195.330627 
	C249.098389,194.969131 249.115189,194.766678 249.155304,194.260422 
z"/>
<path fill="#273E62" opacity="1.000000" stroke="none" 
	d="
M251.306686,165.214172 
	C252.260818,165.458191 253.426163,165.942780 254.821808,166.646408 
	C253.874023,166.395218 252.695969,165.924988 251.306686,165.214172 
z"/>
<path fill="#1E3764" opacity="1.000000" stroke="none" 
	d="
M232.699234,163.595490 
	C232.204926,164.020187 231.431976,164.456741 230.394394,164.957443 
	C230.893372,164.550186 231.656982,164.078751 232.699234,163.595490 
z"/>
<path fill="#1B305B" opacity="1.000000" stroke="none" 
	d="
M234.705597,238.185211 
	C235.094986,238.503616 235.540085,239.067856 235.976685,239.824066 
	C235.565872,239.487701 235.163589,238.959366 234.705597,238.185211 
z"/>
<path fill="#1E3764" opacity="1.000000" stroke="none" 
	d="
M236.658142,164.165527 
	C236.346802,164.228470 235.838715,164.161346 235.203720,164.009460 
	C235.538345,163.961609 235.999878,163.998550 236.658142,164.165527 
z"/>
<path fill="#273E62" opacity="1.000000" stroke="none" 
	d="
M257.331604,285.929291 
	C257.659302,285.973602 258.199677,286.171783 258.885986,286.468750 
	C258.536011,286.406097 258.040131,286.244629 257.331604,285.929291 
z"/>
<path fill="#1E3764" opacity="1.000000" stroke="none" 
	d="
M233.737350,195.402283 
	C233.498016,195.673859 232.991684,195.957611 232.305237,196.234528 
	C232.573532,195.956619 233.021942,195.685547 233.737350,195.402283 
z"/>
<path fill="#273E62" opacity="1.000000" stroke="none" 
	d="
M262.379852,287.896393 
	C262.708496,287.966492 263.233063,288.216644 263.894165,288.580719 
	C263.545715,288.488556 263.060730,288.282501 262.379852,287.896393 
z"/>
<path fill="#273E62" opacity="1.000000" stroke="none" 
	d="
M267.487976,289.743225 
	C267.758545,289.794525 268.182465,290.000946 268.721863,290.284912 
	C268.438629,290.207733 268.039948,290.053009 267.487976,289.743225 
z"/>
<path fill="#203D6D" opacity="1.000000" stroke="none" 
	d="
M274.331238,189.580765 
	C274.150391,189.359573 273.939423,188.915939 273.722656,188.308716 
	C273.911652,188.549530 274.106415,188.953934 274.331238,189.580765 
z"/>
<path fill="#142445" opacity="1.000000" stroke="none" 
	d="
M228.210098,166.778198 
	C227.779984,167.026520 227.305359,167.051697 226.477005,167.084686 
	C226.583481,166.794327 227.043701,166.496155 227.781250,166.155334 
	C228.058594,166.112701 228.165604,166.555038 228.210098,166.778198 
z"/>
<path fill="#1E3764" opacity="1.000000" stroke="none" 
	d="
M244.542450,192.029175 
	C244.572571,192.002548 244.592392,192.038666 244.598541,192.033722 
	C244.604675,192.028793 244.512329,192.055817 244.542450,192.029175 
z"/>
<path fill="#1B305B" opacity="1.000000" stroke="none" 
	d="
M212.961151,223.466980 
	C212.996964,223.457932 213.002441,223.486908 213.012024,223.491119 
	C213.021606,223.495331 212.925339,223.476013 212.961151,223.466980 
z"/>
<path fill="#1E3764" opacity="1.000000" stroke="none" 
	d="
M246.608490,193.036072 
	C246.635132,193.057632 246.546310,193.050339 246.535889,193.028610 
	C246.525467,193.006882 246.581848,193.014511 246.608490,193.036072 
z"/>
<path fill="#1E3764" opacity="1.000000" stroke="none" 
	d="
M239.518982,194.744690 
	C239.615936,194.761002 239.310074,194.935791 239.225708,194.962555 
	C239.141327,194.989319 239.422012,194.728378 239.518982,194.744690 
z"/>
<path fill="#203D6D" opacity="1.000000" stroke="none" 
	d="
M287.891724,224.884674 
	C288.027252,224.745377 288.035400,225.209808 287.995758,225.438644 
	C287.956116,225.667480 287.596039,225.730103 287.427185,225.669189 
	C287.405029,225.397125 287.571014,225.202347 287.891724,224.884674 
z"/>
<path fill="#1E3764" opacity="1.000000" stroke="none" 
	d="
M241.764282,165.918533 
	C241.821640,166.014603 241.459030,165.839325 241.376282,165.784714 
	C241.293518,165.730103 241.706909,165.822464 241.764282,165.918533 
z"/>
<path fill="#142445" opacity="1.000000" stroke="none" 
	d="
M173.636475,325.267822 
	C173.609619,325.181030 173.859940,325.417877 173.906860,325.487915 
	C173.953766,325.557983 173.663330,325.354614 173.636475,325.267822 
z"/>
<path fill="#273E62" opacity="1.000000" stroke="none" 
	d="
M264.428375,289.205750 
	C264.444672,289.203094 264.424255,289.242828 264.423767,289.234589 
	C264.423248,289.226349 264.412079,289.208405 264.428375,289.205750 
z"/>
<path fill="#223E70" opacity="1.000000" stroke="none" 
	d="
M257.231934,232.144119 
	C260.530243,232.355728 264.102875,232.534988 267.593018,233.168732 
	C268.484650,233.330627 269.115021,234.931396 269.865448,235.871094 
	C268.633759,236.434967 267.075195,237.771637 266.232697,237.415283 
	C263.865631,236.414078 261.793549,234.715363 259.292297,233.153473 
	C258.478149,232.770386 257.976868,232.525528 257.231934,232.144119 
z"/>
<path fill="#000000" opacity="1.000000" stroke="none" 
	d="
M270.046600,254.271118 
	C272.280914,250.357376 274.643890,246.737213 277.006836,243.117050 
	C277.602295,243.376801 278.197754,243.636551 278.793213,243.896286 
	C277.585754,246.698746 276.378296,249.501205 275.116333,252.654556 
	C273.333038,253.212173 273.028107,257.881012 270.046600,254.271118 
z"/>
<path fill="#223E70" opacity="1.000000" stroke="none" 
	d="
M263.111633,241.230743 
	C264.047119,241.004791 265.102264,241.005753 266.550903,241.008118 
	C265.706726,241.158905 264.468994,241.308289 263.111633,241.230743 
z"/>
<path fill="#224273" opacity="1.000000" stroke="none" 
	d="
M256.493469,174.282639 
	C258.230194,175.223251 259.636993,176.187775 261.362244,177.250916 
	C264.620941,180.445267 267.561188,183.541000 270.766418,186.848236 
	C269.152069,193.336548 272.829010,198.561996 274.257202,204.216568 
	C274.731659,206.095139 275.112793,208.005524 275.397247,209.922043 
	C275.909485,213.373245 276.316589,216.840057 276.877533,220.636780 
	C273.274628,219.210220 269.297424,217.846420 265.905060,215.599533 
	C259.231964,211.179626 257.290161,204.151825 258.850769,196.290329 
	C259.334717,193.852417 257.503204,190.896011 256.542938,188.245422 
	C255.393555,185.072800 253.600418,182.054947 252.999924,178.801407 
	C252.767242,177.540695 255.034897,175.818497 256.493469,174.282639 
z"/>
<path fill="#223E70" opacity="1.000000" stroke="none" 
	d="
M274.143890,232.124176 
	C274.528870,232.203415 275.037476,232.441101 275.791138,232.817078 
	C275.446655,232.731140 274.857086,232.506897 274.143890,232.124176 
z"/>
<path fill="#223E70" opacity="1.000000" stroke="none" 
	d="
M266.142578,228.249756 
	C266.503662,228.336151 266.985382,228.566345 267.689087,228.944366 
	C267.361816,228.859314 266.812531,228.626419 266.142578,228.249756 
z"/>
<path fill="#000000" opacity="1.000000" stroke="none" 
	d="
M122.672180,318.635620 
	C123.495949,316.187897 124.339203,314.148926 125.182457,312.109955 
	C127.856445,313.300323 131.566940,313.822998 132.893066,315.881622 
	C134.060333,317.693604 133.469482,321.992371 131.968613,323.765198 
	C130.628799,325.347717 126.873405,325.590424 124.411888,325.150146 
	C123.503502,324.987671 123.246017,321.186127 122.672180,318.635620 
z"/>
<path fill="#000000" opacity="1.000000" stroke="none" 
	d="
M174.364502,317.847382 
	C173.501740,318.087158 172.949219,318.361938 172.544464,318.218842 
	C171.111710,317.712280 169.612427,317.222992 168.415466,316.348083 
	C168.137741,316.145111 168.806168,313.665741 169.297485,313.570892 
	C170.984940,313.244934 172.891922,313.202850 174.481552,313.741821 
	C174.959839,313.903961 174.676804,316.311676 174.364502,317.847382 
z"/>
<path fill="#000000" opacity="1.000000" stroke="none" 
	d="
M358.619446,317.898743 
	C357.475464,318.204407 356.602417,318.621490 355.872345,318.445496 
	C354.270844,318.059418 352.741730,317.373047 351.183075,316.809326 
	C351.766907,315.227997 352.151428,312.438354 352.973694,312.302765 
	C355.045013,311.961121 357.388977,312.616913 359.429382,313.387451 
	C359.770691,313.516327 359.137909,316.224670 358.619446,317.898743 
z"/>
</svg>